# Blender v2.77 (sub 0) OBJ File: ''
# www.blender.org
o BlackKeysPart3
v 12.003880 3.299910 552.106812
v 82.082474 1.299898 622.185425
v 80.385422 1.299896 623.882507
v 80.385422 3.299896 623.882507
v 10.306820 1.299910 553.803894
v 10.306820 3.299910 553.803894
v 12.003880 1.299910 552.106812
v 82.082474 3.299898 622.185425
v 10.103870 1.299909 561.406799
v 10.103870 3.299908 561.406799
v 80.182480 1.299896 631.485413
v 80.182480 3.299896 631.485413
v 78.485420 1.299895 633.182495
v 8.406815 1.299908 563.103882
v 78.485420 3.299895 633.182495
v 8.406815 3.299908 563.103882
v 10.003880 3.299908 565.706787
v 80.082474 3.299896 635.785400
v 80.082474 1.299895 635.785400
v 78.385422 1.299894 637.482483
v 78.385422 3.299894 637.482483
v 8.306816 1.299908 567.403870
v 10.003880 1.299908 565.706787
v 8.306816 3.299907 567.403870
v 5.303879 3.299906 576.206787
v 5.303879 1.299906 576.206787
v 75.382477 1.299894 646.285400
v 73.685417 3.299892 647.982483
v 73.685417 1.299892 647.982483
v 3.606819 1.299906 577.903870
v 3.606819 3.299906 577.903870
v 75.382477 3.299894 646.285400
v 0.406815 1.299904 585.903870
v 2.103874 3.299905 584.206787
v 2.103874 1.299905 584.206787
v 72.182480 3.299892 654.285400
v 70.485420 3.299891 655.982483
v 0.406815 3.299905 585.903870
v 70.485420 1.299891 655.982483
v 72.182480 1.299892 654.285400
v -3.493179 3.299903 593.203918
v -3.493179 1.299903 593.203918
v -1.796120 1.299904 591.506775
v -1.796120 3.299904 591.506775
v 68.282494 3.299891 661.585388
v 66.585426 3.299890 663.282471
v 66.585426 1.299890 663.282471
v 68.282494 1.299891 661.585388
v -10.396130 3.299901 605.506775
v 59.682480 1.299889 675.585388
v 57.985420 3.299888 677.282471
v -12.093190 1.299901 607.203918
v -12.093190 3.299901 607.203918
v 57.985420 1.299888 677.282471
v -10.396130 1.299901 605.506775
v 59.682480 3.299889 675.585388
v -12.893180 3.299900 614.803894
v -11.196120 3.299900 613.106812
v 58.882481 1.299888 683.185425
v -12.893180 1.299900 614.803894
v 57.185421 1.299886 684.882507
v -11.196120 1.299900 613.106812
v 57.185421 3.299886 684.882507
v 58.882481 3.299888 683.185425
v -10.893180 3.299897 629.803894
v -9.196121 3.299898 628.106812
v 60.882481 1.299885 698.185425
v 59.185421 3.299884 699.882507
v -10.893180 1.299897 629.803894
v 59.185421 1.299884 699.882507
v -9.196121 1.299898 628.106812
v 60.882481 3.299885 698.185425
v -78.893181 3.299899 617.686218
v -78.893181 1.299899 617.686218
v -8.814577 3.299910 547.607483
v -8.814577 1.299910 547.607483
v -7.117521 1.299909 549.304626
v -77.196121 1.299899 619.383179
v -7.117521 3.299909 549.304626
v -77.196121 3.299899 619.383179
v -81.273178 1.299898 627.986084
v -81.273178 3.299898 627.986084
v -11.194580 3.299908 557.907471
v -9.497520 1.299907 559.604614
v -79.576134 1.299897 629.683228
v -79.576134 3.299897 629.683228
v -11.194580 1.299908 557.907471
v -9.497520 3.299907 559.604614
v -83.453194 3.299897 634.226074
v -83.453194 1.299897 634.226074
v -13.374580 1.299907 564.147522
v -11.677520 1.299906 565.844604
v -81.756126 3.299896 635.923218
v -81.756126 1.299896 635.923218
v -11.677520 3.299906 565.844604
v -13.374580 3.299907 564.147522
v -85.106117 3.299894 647.783203
v -86.803177 3.299895 646.086121
v -86.803177 1.299895 646.086121
v -16.724581 1.299905 576.007507
v -15.027520 1.299904 577.704590
v -15.027520 3.299904 577.704590
v -85.106117 1.299894 647.783203
v -16.724581 3.299905 576.007507
v -92.573181 1.299893 656.286072
v -92.573181 3.299893 656.286072
v -22.494579 3.299903 586.207520
v -22.494579 1.299904 586.207520
v -90.876122 1.299893 657.983215
v -90.876122 3.299893 657.983215
v -20.797520 1.299902 587.904602
v -20.797520 3.299902 587.904602
v -104.193199 3.299889 680.396118
v -34.114578 3.299900 610.317505
v -32.417519 3.299898 612.014587
v -102.496101 1.299889 682.093201
v -32.417519 1.299898 612.014587
v -34.114578 1.299900 610.317505
v -104.193199 1.299889 680.396118
v -102.496101 3.299889 682.093201
v -105.493202 1.299888 689.896118
v -35.414570 3.299898 619.817505
v -33.717522 1.299897 621.514587
v -103.796097 1.299887 691.593201
v -35.414570 1.299898 619.817505
v -33.717522 3.299897 621.514587
v -103.796097 3.299887 691.593201
v -105.493202 3.299888 689.896118
v -100.396103 1.299885 703.193176
v -102.093201 1.299886 701.496216
v -102.093201 3.299886 701.496216
v -32.014580 3.299896 631.417480
v -30.317520 1.299895 633.114624
v -30.317520 3.299895 633.114624
v -100.396103 3.299885 703.193176
v -32.014580 1.299896 631.417480
vn -0.7071 0.0000 -0.7071
vn 0.7071 0.0000 -0.7071
vn 0.7071 0.0000 0.7071
vn -0.7071 0.0000 0.7071
vn 0.0000 -1.0000 -0.0000
vn 0.0000 1.0000 0.0000
vn -0.7071 0.0000 0.7072
s off
f 6//1 7//1 5//1
f 6//1 1//1 7//1
f 1//2 2//2 7//2
f 1//2 8//2 2//2
f 8//3 3//3 2//3
f 8//3 4//3 3//3
f 4//4 5//4 3//4
f 4//4 6//4 5//4
f 5//5 2//5 3//5
f 5//5 7//5 2//5
f 4//6 1//6 6//6
f 4//6 8//6 1//6
f 16//1 9//1 14//1
f 16//1 10//1 9//1
f 10//2 11//2 9//2
f 10//2 12//2 11//2
f 12//3 13//3 11//3
f 12//3 15//3 13//3
f 15//4 14//4 13//4
f 15//4 16//4 14//4
f 14//5 11//5 13//5
f 14//5 9//5 11//5
f 15//6 10//6 16//6
f 15//6 12//6 10//6
f 24//1 23//1 22//1
f 24//1 17//1 23//1
f 17//2 19//2 23//2
f 17//2 18//2 19//2
f 18//3 20//3 19//3
f 18//3 21//3 20//3
f 21//4 22//4 20//4
f 21//4 24//4 22//4
f 22//5 19//5 20//5
f 22//5 23//5 19//5
f 21//6 17//6 24//6
f 21//6 18//6 17//6
f 31//1 26//1 30//1
f 31//1 25//1 26//1
f 25//2 27//2 26//2
f 25//2 32//2 27//2
f 32//3 29//3 27//3
f 32//3 28//3 29//3
f 28//4 30//4 29//4
f 28//4 31//4 30//4
f 30//5 27//5 29//5
f 30//5 26//5 27//5
f 28//6 25//6 31//6
f 28//6 32//6 25//6
f 38//1 35//1 33//1
f 38//1 34//1 35//1
f 34//2 40//2 35//2
f 34//2 36//2 40//2
f 36//3 39//3 40//3
f 36//3 37//3 39//3
f 37//4 33//4 39//4
f 37//4 38//4 33//4
f 33//5 40//5 39//5
f 33//5 35//5 40//5
f 37//6 34//6 38//6
f 37//6 36//6 34//6
f 41//1 43//1 42//1
f 41//1 44//1 43//1
f 44//2 48//2 43//2
f 44//2 45//2 48//2
f 45//3 47//3 48//3
f 45//3 46//3 47//3
f 46//4 42//4 47//4
f 46//4 41//4 42//4
f 42//5 48//5 47//5
f 42//5 43//5 48//5
f 46//6 44//6 41//6
f 46//6 45//6 44//6
f 53//1 55//1 52//1
f 53//1 49//1 55//1
f 49//2 50//2 55//2
f 49//2 56//2 50//2
f 56//3 54//3 50//3
f 56//3 51//3 54//3
f 51//4 52//4 54//4
f 51//4 53//4 52//4
f 52//5 50//5 54//5
f 52//5 55//5 50//5
f 51//6 49//6 53//6
f 51//6 56//6 49//6
f 57//1 62//1 60//1
f 57//1 58//1 62//1
f 58//2 59//2 62//2
f 58//2 64//2 59//2
f 64//3 61//3 59//3
f 64//3 63//3 61//3
f 63//4 60//4 61//4
f 63//4 57//4 60//4
f 60//5 59//5 61//5
f 60//5 62//5 59//5
f 63//6 58//6 57//6
f 63//6 64//6 58//6
f 65//1 71//1 69//1
f 65//1 66//1 71//1
f 66//2 67//2 71//2
f 66//2 72//2 67//2
f 72//3 70//3 67//3
f 72//3 68//3 70//3
f 68//4 69//4 70//4
f 68//4 65//4 69//4
f 69//5 67//5 70//5
f 69//5 71//5 67//5
f 68//6 66//6 65//6
f 68//6 72//6 66//6
f 80//4 74//4 78//4
f 80//4 73//4 74//4
f 73//1 76//1 74//1
f 73//1 75//1 76//1
f 75//2 77//2 76//2
f 75//2 79//2 77//2
f 79//3 78//3 77//3
f 79//3 80//3 78//3
f 78//5 76//5 77//5
f 78//5 74//5 76//5
f 79//6 73//6 80//6
f 79//6 75//6 73//6
f 86//4 81//4 85//4
f 86//4 82//4 81//4
f 82//1 87//1 81//1
f 82//1 83//1 87//1
f 83//2 84//2 87//2
f 83//2 88//2 84//2
f 88//3 85//3 84//3
f 88//3 86//3 85//3
f 85//5 87//5 84//5
f 85//5 81//5 87//5
f 88//6 82//6 86//6
f 88//6 83//6 82//6
f 93//4 90//4 94//4
f 93//4 89//4 90//4
f 89//1 91//1 90//1
f 89//1 96//1 91//1
f 96//2 92//2 91//2
f 96//2 95//2 92//2
f 95//3 94//3 92//3
f 95//3 93//3 94//3
f 94//5 91//5 92//5
f 94//5 90//5 91//5
f 95//6 89//6 93//6
f 95//6 96//6 89//6
f 97//4 99//4 103//4
f 97//4 98//4 99//4
f 98//1 100//1 99//1
f 98//1 104//1 100//1
f 104//2 101//2 100//2
f 104//2 102//2 101//2
f 102//3 103//3 101//3
f 102//3 97//3 103//3
f 103//5 100//5 101//5
f 103//5 99//5 100//5
f 102//6 98//6 97//6
f 102//6 104//6 98//6
f 110//4 105//4 109//4
f 110//4 106//4 105//4
f 106//1 108//1 105//1
f 106//1 107//1 108//1
f 107//2 111//2 108//2
f 107//2 112//2 111//2
f 112//3 109//3 111//3
f 112//3 110//3 109//3
f 109//5 108//5 111//5
f 109//5 105//5 108//5
f 112//6 106//6 110//6
f 112//6 107//6 106//6
f 120//4 119//4 116//4
f 120//4 113//4 119//4
f 113//1 118//1 119//1
f 113//1 114//1 118//1
f 114//2 117//2 118//2
f 114//2 115//2 117//2
f 115//3 116//3 117//3
f 115//3 120//3 116//3
f 116//5 118//5 117//5
f 116//5 119//5 118//5
f 115//6 113//6 120//6
f 115//6 114//6 113//6
f 127//4 121//4 124//4
f 127//4 128//4 121//4
f 128//1 125//1 121//1
f 128//1 122//1 125//1
f 122//2 123//2 125//2
f 122//2 126//2 123//2
f 126//3 124//3 123//3
f 126//3 127//3 124//3
f 124//5 125//5 123//5
f 124//5 121//5 125//5
f 126//6 128//6 127//6
f 126//6 122//6 128//6
f 135//7 130//7 129//7
f 135//4 131//4 130//4
f 131//1 136//1 130//1
f 131//1 132//1 136//1
f 132//2 133//2 136//2
f 132//2 134//2 133//2
f 134//3 129//3 133//3
f 134//3 135//3 129//3
f 129//5 136//5 133//5
f 129//5 130//5 136//5
f 134//6 131//6 135//6
f 134//6 132//6 131//6
