# Blender v2.77 (sub 0) OBJ File: ''
# www.blender.org
o Cube.001_Cube.009
v -0.250000 1.537174 0.250008
v -0.250000 1.537174 -0.249992
v -0.250000 -98.462830 -0.250008
v -0.250000 -98.462830 0.249992
v 0.250000 1.537174 -0.249992
v 0.250000 -98.462830 -0.250008
v 0.250000 1.537174 0.250008
v 0.250000 -98.462830 0.249992
vn -1.0000 0.0000 0.0000
vn 0.0000 0.0000 -1.0000
vn 1.0000 0.0000 0.0000
vn 0.0000 -0.0000 1.0000
vn 0.0000 -1.0000 0.0000
vn 0.0000 1.0000 0.0000
s 1
f 1//1 2//1 3//1 4//1
f 2//2 5//2 6//2 3//2
f 5//3 7//3 8//3 6//3
f 7//4 1//4 4//4 8//4
f 4//5 3//5 6//5 8//5
f 7//6 5//6 2//6 1//6
