# Blender v2.77 (sub 0) OBJ File: ''
# www.blender.org
o BlackKeysPart1.001
v -84.316116 3.499955 92.543190
v -86.013184 1.499955 90.846130
v -84.316116 1.499955 92.543190
v -86.013184 3.499955 90.846130
v -15.934580 1.499990 20.767521
v -15.934580 3.499990 20.767521
v -14.237520 1.499986 22.464569
v -14.237520 3.499987 22.464569
v -84.836121 3.499952 101.103203
v -86.533180 1.499952 99.406128
v -84.836121 1.499952 101.103203
v -86.533180 3.499952 99.406128
v -16.454580 1.499984 29.327520
v -16.454580 3.499984 29.327520
v -14.757520 1.499983 31.024580
v -14.757520 3.499983 31.024580
v -86.213760 3.499945 115.827278
v -87.910820 1.499945 114.130180
v -86.213760 1.499945 115.827278
v -87.910820 3.499945 114.130180
v -17.832224 1.499979 44.051601
v -17.832224 3.499980 44.051601
v -16.135164 1.499977 45.748661
v -16.135164 3.499977 45.748661
v -81.956123 3.499940 119.673203
v -83.653183 1.499943 117.976097
v -81.956123 1.499940 119.673203
v -83.653183 3.499943 117.976097
v -13.574580 1.499975 47.897518
v -13.574580 3.499975 47.897518
v -11.877520 1.499974 49.594570
v -11.877520 3.499974 49.594570
v -78.496117 3.499937 126.993202
v -80.193176 1.499940 125.296097
v -78.496117 1.499937 126.993202
v -80.193176 3.499938 125.296097
v -10.114580 1.499972 55.217510
v -10.114580 3.499972 55.217510
v -8.417521 1.499971 56.914570
v -8.417521 3.499971 56.914570
v -72.286133 3.499931 142.873199
v -73.983177 1.499931 141.176102
v -72.286133 1.499931 142.873199
v -73.983177 3.499931 141.176102
v -3.904576 1.499963 71.097519
v -3.904576 3.499963 71.097519
v -2.207520 1.499962 72.794579
v -2.207520 3.499962 72.794579
v -68.296120 3.499928 146.793198
v -69.993179 1.499928 145.096100
v -68.296120 1.499928 146.793198
v -69.993179 3.499928 145.096100
v 0.085423 1.499963 75.017517
v 0.085423 3.499963 75.017517
v 1.782479 1.499959 76.714577
v 1.782479 3.499962 76.714577
v -65.746117 3.499928 149.473206
v -67.443176 1.499928 147.776093
v -65.746117 1.499928 149.473206
v -67.443176 3.499928 147.776093
v 2.635424 1.499960 77.697517
v 2.635424 3.499960 77.697517
v 4.332479 1.499959 79.394577
v 4.332479 3.499959 79.394577
v -62.476120 3.499922 161.503204
v -64.173180 1.499922 159.806107
v -62.476120 1.499922 161.503204
v -64.173180 3.499922 159.806107
v 5.905423 1.499954 89.727524
v 5.905423 3.499955 89.727524
v 7.602479 1.499953 91.424583
v 7.602479 3.499953 91.424583
v -65.876122 3.499916 173.463196
v -67.573181 1.499916 171.766098
v -65.876122 1.499916 173.463196
v -67.573181 3.499916 171.766098
v 2.505424 1.499948 101.687500
v 2.505424 3.499951 101.687500
v 4.202479 1.499947 103.384598
v 4.202479 3.499947 103.384598
v -66.076134 3.499913 178.173203
v -67.773178 1.499913 176.476105
v -66.076134 1.499913 178.173203
v -67.773178 3.499913 176.476105
v 2.305424 1.499948 106.397499
v 2.305424 3.499948 106.397499
v 4.002480 1.499944 108.094597
v 4.002480 3.499944 108.094597
v -69.096123 3.499907 189.493195
v -70.793182 1.499907 187.796097
v -69.096123 1.499907 189.493195
v -70.793182 3.499907 187.796097
v -0.714577 1.499942 117.717499
v -0.714577 3.499942 117.717499
v 0.982479 1.499941 119.414597
v 0.982479 3.499939 119.414597
v -73.296127 3.499904 198.193207
v -74.993179 1.499904 196.496094
v -73.296127 1.499904 198.193207
v -74.993179 3.499904 196.496094
v -4.914577 1.499936 126.417503
v -4.914577 3.499938 126.417503
v -3.217522 1.499935 128.114594
v -3.217522 3.499935 128.114594
vn 0.0000 0.5773 0.8165
vn -0.8165 -0.5773 0.0000
vn 0.0000 -0.5773 0.8165
vn -0.8165 0.5773 0.0000
vn 0.0000 -0.5773 -0.8165
vn 0.0000 0.5773 -0.8165
vn 0.8165 -0.5773 0.0000
vn 0.8165 0.5773 0.0000
s 1
f 1//1 2//2 3//3
f 1//1 4//4 2//2
f 4//4 5//5 2//2
f 4//4 6//6 5//5
f 6//6 7//7 5//5
f 6//6 8//8 7//7
f 8//8 3//3 7//7
f 8//8 1//1 3//3
f 3//3 5//5 7//7
f 3//3 2//2 5//5
f 8//8 4//4 1//1
f 8//8 6//6 4//4
f 9//1 10//2 11//3
f 9//1 12//4 10//2
f 12//4 13//5 10//2
f 12//4 14//6 13//5
f 14//6 15//7 13//5
f 14//6 16//8 15//7
f 16//8 11//3 15//7
f 16//8 9//1 11//3
f 11//3 13//5 15//7
f 11//3 10//2 13//5
f 16//8 12//4 9//1
f 16//8 14//6 12//4
f 17//1 18//2 19//3
f 17//1 20//4 18//2
f 20//4 21//5 18//2
f 20//4 22//6 21//5
f 22//6 23//7 21//5
f 22//6 24//8 23//7
f 24//8 19//3 23//7
f 24//8 17//1 19//3
f 19//3 21//5 23//7
f 19//3 18//2 21//5
f 24//8 20//4 17//1
f 24//8 22//6 20//4
f 25//1 26//2 27//3
f 25//1 28//4 26//2
f 28//4 29//5 26//2
f 28//4 30//6 29//5
f 30//6 31//7 29//5
f 30//6 32//8 31//7
f 32//8 27//3 31//7
f 32//8 25//1 27//3
f 27//3 29//5 31//7
f 27//3 26//2 29//5
f 32//8 28//4 25//1
f 32//8 30//6 28//4
f 33//1 34//2 35//3
f 33//1 36//4 34//2
f 36//4 37//5 34//2
f 36//4 38//6 37//5
f 38//6 39//7 37//5
f 38//6 40//8 39//7
f 40//8 35//3 39//7
f 40//8 33//1 35//3
f 35//3 37//5 39//7
f 35//3 34//2 37//5
f 40//8 36//4 33//1
f 40//8 38//6 36//4
f 41//1 42//2 43//3
f 41//1 44//4 42//2
f 44//4 45//5 42//2
f 44//4 46//6 45//5
f 46//6 47//7 45//5
f 46//6 48//8 47//7
f 48//8 43//3 47//7
f 48//8 41//1 43//3
f 43//3 45//5 47//7
f 43//3 42//2 45//5
f 48//8 44//4 41//1
f 48//8 46//6 44//4
f 49//1 50//2 51//3
f 49//1 52//4 50//2
f 52//4 53//5 50//2
f 52//4 54//6 53//5
f 54//6 55//7 53//5
f 54//6 56//8 55//7
f 56//8 51//3 55//7
f 56//8 49//1 51//3
f 51//3 53//5 55//7
f 51//3 50//2 53//5
f 56//8 52//4 49//1
f 56//8 54//6 52//4
f 57//1 58//2 59//3
f 57//1 60//4 58//2
f 60//4 61//5 58//2
f 60//4 62//6 61//5
f 62//6 63//7 61//5
f 62//6 64//8 63//7
f 64//8 59//3 63//7
f 64//8 57//1 59//3
f 59//3 61//5 63//7
f 59//3 58//2 61//5
f 64//8 60//4 57//1
f 64//8 62//6 60//4
f 65//1 66//2 67//3
f 65//1 68//4 66//2
f 68//4 69//5 66//2
f 68//4 70//6 69//5
f 70//6 71//7 69//5
f 70//6 72//8 71//7
f 72//8 67//3 71//7
f 72//8 65//1 67//3
f 67//3 69//5 71//7
f 67//3 66//2 69//5
f 72//8 68//4 65//1
f 72//8 70//6 68//4
f 73//1 74//2 75//3
f 73//1 76//4 74//2
f 76//4 77//5 74//2
f 76//4 78//6 77//5
f 78//6 79//7 77//5
f 78//6 80//8 79//7
f 80//8 75//3 79//7
f 80//8 73//1 75//3
f 75//3 77//5 79//7
f 75//3 74//2 77//5
f 80//8 76//4 73//1
f 80//8 78//6 76//4
f 81//1 82//2 83//3
f 81//1 84//4 82//2
f 84//4 85//5 82//2
f 84//4 86//6 85//5
f 86//6 87//7 85//5
f 86//6 88//8 87//7
f 88//8 83//3 87//7
f 88//8 81//1 83//3
f 83//3 85//5 87//7
f 83//3 82//2 85//5
f 88//8 84//4 81//1
f 88//8 86//6 84//4
f 89//1 90//2 91//3
f 89//1 92//4 90//2
f 92//4 93//5 90//2
f 92//4 94//6 93//5
f 94//6 95//7 93//5
f 94//6 96//8 95//7
f 96//8 91//3 95//7
f 96//8 89//1 91//3
f 91//3 93//5 95//7
f 91//3 90//2 93//5
f 96//8 92//4 89//1
f 96//8 94//6 92//4
f 97//1 98//2 99//3
f 97//1 100//4 98//2
f 100//4 101//5 98//2
f 100//4 102//6 101//5
f 102//6 103//7 101//5
f 102//6 104//8 103//7
f 104//8 99//3 103//7
f 104//8 97//1 99//3
f 99//3 101//5 103//7
f 99//3 98//2 101//5
f 104//8 100//4 97//1
f 104//8 102//6 100//4
